<svg xmlns="http://www.w3.org/2000/svg" viewBox="0 0 128 128" role="img" aria-labelledby="title desc">
  <title id="title">CharmRun extension icon</title>
  <desc id="desc">A Python-inspired badge with two interlocked forms and a play symbol to suggest running Python code.</desc>
  <defs>
    <linearGradient id="bg" x1="10" y1="10" x2="118" y2="118" gradientUnits="userSpaceOnUse">
      <stop offset="0" stop-color="#12263A"/>
      <stop offset="1" stop-color="#08111C"/>
    </linearGradient>
    <linearGradient id="pythonBlue" x1="26" y1="22" x2="68" y2="60" gradientUnits="userSpaceOnUse">
      <stop offset="0" stop-color="#5BD1FF"/>
      <stop offset="1" stop-color="#2B78E4"/>
    </linearGradient>
    <linearGradient id="pythonGold" x1="60" y1="64" x2="102" y2="106" gradientUnits="userSpaceOnUse">
      <stop offset="0" stop-color="#FFD75E"/>
      <stop offset="1" stop-color="#F1A326"/>
    </linearGradient>
    <filter id="softShadow" x="-20%" y="-20%" width="140%" height="140%">
      <feDropShadow dx="0" dy="5" stdDeviation="5" flood-color="#000000" flood-opacity="0.22"/>
    </filter>
  </defs>
  <rect x="8" y="8" width="112" height="112" rx="28" fill="url(#bg)"/>
  <rect x="8" y="8" width="112" height="112" rx="28" fill="none" stroke="#FFFFFF" stroke-opacity="0.08"/>
  <g filter="url(#softShadow)">
    <path d="M62 24H43c-10.493 0-19 8.507-19 19v12c0 4.971 4.029 9 9 9h30c4.971 0 9 4.029 9 9v5c0 8.837-7.163 16-16 16H36c-4.418 0-8 3.582-8 8s3.582 8 8 8h20c18.778 0 34-15.222 34-34V58c0-6.627-5.373-12-12-12H47c-3.314 0-6-2.686-6-6v-1c0-4.418 3.582-8 8-8h13c4.418 0 8-3.582 8-8s-3.582-8-8-8z" fill="url(#pythonBlue)"/>
    <path d="M66 104h19c10.493 0 19-8.507 19-19V73c0-4.971-4.029-9-9-9H65c-4.971 0-9-4.029-9-9v-5c0-8.837 7.163-16 16-16h20c4.418 0 8-3.582 8-8s-3.582-8-8-8H72C53.222 18 38 33.222 38 52v18c0 6.627 5.373 12 12 12h31c3.314 0 6 2.686 6 6v1c0 4.418-3.582 8-8 8H66c-4.418 0-8 3.582-8 8s3.582 8 8 8z" fill="url(#pythonGold)"/>
    <circle cx="50" cy="39" r="5" fill="#DDF5FF"/>
    <circle cx="78" cy="89" r="5" fill="#FFF0B8"/>
    <circle cx="64" cy="64" r="20" fill="#F8FBFF"/>
    <path d="M57 52l19 12-19 12V52z" fill="#0B1C2C"/>
  </g>
</svg>
